<svg xmlns="http://www.w3.org/2000/svg" width="22" height="22" viewBox="0 0 22 22"><g transform="translate(-189 -435)"><g transform="translate(189 435)" fill="none" stroke="#8499a2" stroke-width="2"><circle cx="11" cy="11" r="11" stroke="none"/><circle cx="11" cy="11" r="10" fill="none"/></g><g transform="translate(195.5 441)" fill="#8499a2"><path d="M 6.63843297958374 8.088678359985352 L 4.736030101776123 7.070000171661377 L 4.5 6.943610191345215 L 4.263969898223877 7.070000171661377 L 2.361567258834839 8.088678359985352 L 2.70088005065918 5.833030223846436 L 2.737240076065063 5.591310024261475 L 2.568819999694824 5.414150238037109 L 1.011430144309998 3.775927543640137 L 3.164740085601807 3.416840076446533 L 3.419660091400146 3.374330043792725 L 3.532409906387329 3.141779899597168 L 4.5 1.146087169647217 L 5.467589855194092 3.141779899597168 L 5.580339908599854 3.374330043792725 L 5.835259914398193 3.416840076446533 L 7.988569736480713 3.775927543640137 L 6.431180000305176 5.414150238037109 L 6.262760162353516 5.591310024261475 L 6.29911994934082 5.833030223846436 L 6.63843297958374 8.088678359985352 Z" stroke="none"/><path d="M 4.5 2.292184352874756 L 3.982319831848145 3.359920024871826 L 3.756820201873779 3.825009822845459 L 3.246990203857422 3.910029888153076 L 2.022861480712891 4.114166736602783 L 2.93120002746582 5.069649696350098 L 3.268040180206299 5.423970222473145 L 3.195310115814209 5.907400131225586 L 3.004272937774658 7.17735767364502 L 4.027949810028076 6.629209995269775 L 4.5 6.376440048217773 L 4.972050189971924 6.629209995269775 L 5.9957275390625 7.17735767364502 L 5.804689884185791 5.907400131225586 L 5.731960296630859 5.423970222473145 L 6.06879997253418 5.069649696350098 L 6.977138519287109 4.114166736602783 L 5.753009796142578 3.910029888153076 L 5.243180274963379 3.825009822845459 L 5.017680168151855 3.359920024871826 L 4.5 2.292184352874756 M 4.5 0 L 5.917500019073486 2.923649787902832 L 9 3.437689781188965 L 6.793560028076172 5.758649826049805 L 7.281149864196777 9 L 4.5 7.510779857635498 L 1.718850135803223 9 L 2.206439971923828 5.758649826049805 L 0 3.437689781188965 L 3.082499980926514 2.923649787902832 L 4.5 0 Z" stroke="none" fill="#8499a2"/></g></g></svg>